<?xml version="1.0" standalone="no"?>
<!DOCTYPE svg PUBLIC "-//W3C//DTD SVG 20010904//EN"
 "http://www.w3.org/TR/2001/REC-SVG-20010904/DTD/svg10.dtd">
<svg version="1.0" xmlns="http://www.w3.org/2000/svg"
 width="527.000000pt" height="163.000000pt" viewBox="0 0 527.000000 163.000000"
 preserveAspectRatio="xMidYMid meet">

<g transform="translate(0.000000,163.000000) scale(0.100000,-0.100000)"
fill="#000000" stroke="none">
<path d="M4006 1538 c-12 -158 -42 -359 -77 -509 l-20 -87 -82 -6 c-177 -15
-344 -37 -385 -52 -24 -9 -50 -27 -59 -40 -50 -77 60 -305 171 -355 136 -62
246 41 342 316 l42 120 71 9 c40 4 74 6 77 4 2 -3 16 -45 30 -93 35 -122 54
-165 71 -165 8 0 12 6 9 13 -10 24 -64 192 -70 219 -6 25 -4 27 31 31 l38 4
-37 1 c-34 2 -38 5 -47 40 -28 104 -56 322 -67 520 -5 85 -11 122 -19 122 -8
0 -14 -31 -19 -92z m59 -474 c22 -121 26 -114 -54 -114 l-69 0 19 83 c10 45
25 129 34 187 10 58 19 112 22 120 3 8 12 -32 19 -90 8 -58 21 -141 29 -186z
m-165 -143 c0 -27 -57 -185 -91 -253 -102 -203 -217 -234 -323 -89 -70 95
-102 198 -80 256 14 36 95 54 384 84 47 4 91 9 98 10 6 0 12 -3 12 -8z"/>
<path d="M4865 1513 c-16 -2 -76 -10 -133 -19 -77 -11 -107 -13 -117 -4 -10 8
-15 8 -22 -3 -4 -7 -57 -26 -118 -41 -110 -27 -250 -80 -261 -98 -14 -22 8
-18 68 11 60 29 195 72 272 86 l36 7 2 -418 c2 -271 7 -419 13 -419 6 0 11
149 13 423 1 232 3 422 5 422 1 0 63 9 137 20 140 21 335 27 344 11 16 -25
-100 -111 -150 -111 -10 0 -26 -5 -34 -11 -11 -7 -3 -8 30 -4 124 19 234 111
171 145 -18 9 -188 12 -256 3z"/>
<path d="M855 1479 c-156 -37 -390 -239 -362 -313 10 -25 24 -19 30 12 9 43
88 142 154 191 153 115 332 141 473 68 114 -58 120 -180 15 -296 -42 -46 -186
-146 -277 -192 l-57 -29 -3 157 c-2 114 -6 157 -15 161 -10 3 -13 -35 -13
-166 0 -156 -2 -170 -20 -187 -11 -10 -20 -24 -20 -31 0 -7 9 -18 20 -24 19
-10 20 -21 20 -176 0 -128 3 -165 13 -162 9 4 13 47 15 161 1 89 7 157 12 157
5 0 87 -16 182 -35 95 -19 184 -34 198 -34 34 1 -39 20 -232 60 -156 31 -158
32 -158 58 0 22 10 32 63 60 127 70 233 141 284 189 154 147 129 298 -60 363
-57 20 -193 24 -262 8z"/>
<path d="M2560 1270 c-63 -121 -118 -220 -122 -220 -10 0 -64 177 -84 276 -9
46 -23 92 -30 101 -12 16 -13 14 -13 -17 -1 -47 31 -184 68 -301 17 -53 31
-102 31 -109 0 -7 -38 -81 -85 -165 -47 -83 -85 -157 -85 -164 0 -34 32 8 105
137 44 78 82 141 85 141 3 0 26 -44 52 -98 35 -73 64 -116 116 -172 91 -97
156 -133 239 -134 34 0 67 5 73 11 7 7 -11 10 -64 10 -70 -1 -76 1 -131 39
-80 54 -155 153 -216 278 l-51 107 47 85 c53 99 205 401 205 409 0 3 -6 6 -13
6 -6 0 -64 -99 -127 -220z"/>
<path d="M3030 1465 c-148 -31 -278 -93 -357 -171 -51 -51 -71 -90 -59 -119 9
-25 26 -17 26 14 0 67 117 169 254 222 101 39 181 52 288 47 128 -6 199 -42
239 -120 59 -116 -32 -270 -218 -366 -44 -23 -88 -42 -97 -42 -14 0 -16 24
-16 201 0 156 -3 200 -12 197 -10 -4 -14 -56 -16 -208 -2 -179 -4 -205 -20
-216 -16 -13 -16 -13 1 -14 15 0 17 -13 17 -129 0 -71 3 -136 6 -145 16 -41
24 8 24 140 l0 144 28 11 c102 41 216 105 255 143 100 97 130 220 74 305 -70
106 -226 145 -417 106z"/>
<path d="M2022 1446 c-39 -21 -143 -128 -163 -168 -27 -52 -25 -113 4 -141 13
-12 31 -27 41 -32 17 -9 14 -14 -23 -39 -62 -43 -154 -146 -181 -202 -14 -28
-25 -74 -28 -109 -3 -51 0 -65 20 -95 53 -79 145 -89 260 -29 70 37 221 180
276 263 45 69 39 81 -10 21 -80 -96 -213 -221 -277 -259 -108 -66 -184 -59
-217 19 -31 75 -5 171 72 268 54 67 175 157 213 157 14 1 40 7 56 14 27 12 28
14 11 21 -11 5 -39 3 -63 -3 -62 -17 -90 -15 -113 8 -25 25 -26 79 -4 126 37
78 163 189 186 166 8 -8 2 -30 -21 -77 -33 -66 -34 -82 -9 -72 14 5 61 85 72
123 14 45 -50 70 -102 40z"/>
<path d="M465 1328 c-60 -55 -156 -146 -212 -201 l-103 -101 -2 184 c-2 136
-6 184 -15 188 -10 3 -13 -87 -13 -427 0 -246 4 -431 9 -431 17 0 21 34 21
201 l0 169 35 -14 c31 -13 258 -76 273 -76 4 0 2 4 -3 9 -6 5 -59 24 -120 41
-169 49 -197 68 -172 117 15 28 143 157 332 333 105 99 115 110 93 110 -7 0
-62 -46 -123 -102z"/>
<path d="M2090 270 c0 -40 4 -70 10 -70 6 0 10 30 10 70 0 40 -4 70 -10 70 -6
0 -10 -30 -10 -70z"/>
<path d="M2270 283 l0 -57 -50 55 -49 54 1 -70 1 -70 6 54 6 54 48 -51 47 -51
0 69 c0 39 -2 70 -5 70 -3 0 -5 -26 -5 -57z"/>
<path d="M2422 333 c26 -4 27 -7 31 -71 l3 -67 2 67 c2 64 3 67 30 71 15 2 0
4 -33 4 -33 0 -48 -2 -33 -4z"/>
<path d="M2563 270 c0 -41 2 -60 4 -42 4 30 7 32 43 32 36 0 39 -2 43 -32 2
-18 4 1 4 42 0 41 -2 58 -4 38 -4 -37 -6 -38 -43 -38 -37 0 -39 1 -43 38 -2
20 -4 3 -4 -38z"/>
<path d="M2738 270 c-14 -39 -22 -70 -18 -70 4 0 10 9 13 20 6 24 67 29 67 6
0 -8 5 -18 10 -21 8 -5 -34 122 -43 131 -2 2 -14 -28 -29 -66z m41 10 c9 -28
8 -30 -14 -30 -22 0 -23 2 -14 30 6 17 12 30 14 30 2 0 8 -13 14 -30z"/>
<path d="M2873 270 c0 -41 2 -58 4 -37 2 20 2 54 0 75 -2 20 -4 3 -4 -38z"/>
<path d="M2952 273 l-2 -73 33 1 c29 2 30 2 5 6 -26 4 -27 7 -31 71 l-3 67 -2
-72z"/>
<path d="M3320 283 l0 -57 -50 55 -49 54 1 -70 1 -70 6 54 6 54 48 -51 47 -51
0 69 c0 39 -2 70 -5 70 -3 0 -5 -26 -5 -57z"/>
<path d="M3390 270 l0 -70 38 1 c30 2 32 3 10 6 -27 4 -28 7 -28 63 0 56 1 59
28 63 22 3 20 4 -10 6 l-38 1 0 -70z"/>
<path d="M3108 324 c-14 -23 -47 -118 -42 -123 2 -3 7 5 11 17 8 31 60 31 74
0 9 -22 9 -21 4 3 -8 42 -41 114 -47 103z m22 -61 c0 -7 -9 -13 -20 -13 -23 0
-24 4 -9 32 9 17 13 18 20 7 5 -8 9 -20 9 -26z"/>
<path d="M3488 299 c16 -27 16 -31 0 -58 -13 -24 -13 -29 -2 -24 8 3 17 16 20
29 8 31 -2 70 -20 77 -11 5 -11 0 2 -24z"/>
</g>
</svg>
